{
	"asset":{
		"generator":"Khronos glTF Blender I/O v4.5.47",
		"version":"2.0"
	},
	"scene":0,
	"scenes":[
		{
			"name":"Scene",
			"nodes":[
				0
			]
		}
	],
	"nodes":[
		{
			"mesh":0,
			"name":"region",
			"rotation":[
				0,
				-0.2854604125022888,
				0,
				0.9583905935287476
			],
			"translation":[
				4.6811981201171875,
				0.37112998962402344,
				2.435584783554077
			]
		}
	],
	"materials":[
		{
			"doubleSided":true,
			"name":"Material.003",
			"pbrMetallicRoughness":{
				"baseColorTexture":{
					"index":0
				},
				"metallicFactor":0,
				"roughnessFactor":0.5
			}
		}
	],
	"meshes":[
		{
			"name":"Cube.002",
			"primitives":[
				{
					"attributes":{
						"POSITION":0,
						"NORMAL":1,
						"TEXCOORD_0":2
					},
					"indices":3,
					"material":0
				}
			]
		}
	],
	"textures":[
		{
			"sampler":0,
			"source":0
		}
	],
	"images":[
		{
			"mimeType":"image/jpeg",
			"name":"layers.jpg",
			"uri":"layers.jpg"
		}
	],
	"accessors":[
		{
			"bufferView":0,
			"componentType":5126,
			"count":13625,
			"max":[
				1.0088359117507935,
				1.5959957838058472,
				4.90193510055542
			],
			"min":[
				-11.420022964477539,
				-13.891603469848633,
				-1.6948376893997192
			],
			"type":"VEC3"
		},
		{
			"bufferView":1,
			"componentType":5126,
			"count":13625,
			"type":"VEC3"
		},
		{
			"bufferView":2,
			"componentType":5126,
			"count":13625,
			"type":"VEC2"
		},
		{
			"bufferView":3,
			"componentType":5123,
			"count":76800,
			"type":"SCALAR"
		}
	],
	"bufferViews":[
		{
			"buffer":0,
			"byteLength":163500,
			"byteOffset":0,
			"target":34962
		},
		{
			"buffer":0,
			"byteLength":163500,
			"byteOffset":163500,
			"target":34962
		},
		{
			"buffer":0,
			"byteLength":109000,
			"byteOffset":327000,
			"target":34962
		},
		{
			"buffer":0,
			"byteLength":153600,
			"byteOffset":436000,
			"target":34963
		}
	],
	"samplers":[
		{
			"magFilter":9729,
			"minFilter":9987
		}
	],
	"buffers":[
		{
			"byteLength":589600,
			"uri":"Scene.bin"
		}
	]
}
