{
	"asset":{
		"generator":"Khronos glTF Blender I/O v4.5.47",
		"version":"2.0"
	},
	"scene":0,
	"scenes":[
		{
			"name":"Scene",
			"nodes":[
				0,
				1
			]
		}
	],
	"nodes":[
		{
			"mesh":0,
			"name":"Cube",
			"rotation":[
				0,
				-0.2854604125022888,
				0,
				0.9583905935287476
			],
			"translation":[
				4.6811981201171875,
				0.37112998962402344,
				2.435584783554077
			]
		},
		{
			"mesh":1,
			"name":"Cube.001",
			"rotation":[
				0.7477114796638489,
				-0.30096423625946045,
				0.2920907139778137,
				0.5148117542266846
			],
			"scale":[
				0.17616793513298035,
				0.17616795003414154,
				0.17616800963878632
			],
			"translation":[
				0,
				4.637170791625977,
				-0.9823070168495178
			]
		}
	],
	"materials":[
		{
			"doubleSided":true,
			"name":"Material.003",
			"pbrMetallicRoughness":{
				"baseColorTexture":{
					"index":0
				},
				"metallicFactor":0,
				"roughnessFactor":0.5
			}
		},
		{
			"doubleSided":true,
			"name":"Material.004",
			"pbrMetallicRoughness":{
				"baseColorTexture":{
					"index":1
				},
				"metallicFactor":0,
				"roughnessFactor":0.5
			}
		}
	],
	"meshes":[
		{
			"name":"Cube.002",
			"primitives":[
				{
					"attributes":{
						"POSITION":0,
						"NORMAL":1,
						"TEXCOORD_0":2
					},
					"indices":3,
					"material":0
				}
			]
		},
		{
			"name":"Cube.003",
			"primitives":[
				{
					"attributes":{
						"POSITION":4,
						"NORMAL":5,
						"TEXCOORD_0":6
					},
					"indices":7,
					"material":1
				}
			]
		}
	],
	"textures":[
		{
			"sampler":0,
			"source":0
		},
		{
			"sampler":0,
			"source":1
		}
	],
	"images":[
		{
			"mimeType":"image/png",
			"name":"texture.png",
			"uri":"texture.png"
		},
		{
			"mimeType":"image/jpeg",
			"name":"rock.jpg",
			"uri":"rock.jpg"
		}
	],
	"accessors":[
		{
			"bufferView":0,
			"componentType":5126,
			"count":13704,
			"max":[
				1.0088359117507935,
				1.5959957838058472,
				4.90193510055542
			],
			"min":[
				-11.420022964477539,
				-13.891603469848633,
				-1.6948376893997192
			],
			"type":"VEC3"
		},
		{
			"bufferView":1,
			"componentType":5126,
			"count":13704,
			"type":"VEC3"
		},
		{
			"bufferView":2,
			"componentType":5126,
			"count":13704,
			"type":"VEC2"
		},
		{
			"bufferView":3,
			"componentType":5123,
			"count":76800,
			"type":"SCALAR"
		},
		{
			"bufferView":4,
			"componentType":5126,
			"count":18110,
			"max":[
				0.716588020324707,
				0.9741939902305603,
				0.5832890272140503
			],
			"min":[
				-1,
				-0.9606829881668091,
				-0.5440379977226257
			],
			"type":"VEC3"
		},
		{
			"bufferView":5,
			"componentType":5126,
			"count":18110,
			"type":"VEC3"
		},
		{
			"bufferView":6,
			"componentType":5126,
			"count":18110,
			"type":"VEC2"
		},
		{
			"bufferView":7,
			"componentType":5123,
			"count":32496,
			"type":"SCALAR"
		}
	],
	"bufferViews":[
		{
			"buffer":0,
			"byteLength":164448,
			"byteOffset":0,
			"target":34962
		},
		{
			"buffer":0,
			"byteLength":164448,
			"byteOffset":164448,
			"target":34962
		},
		{
			"buffer":0,
			"byteLength":109632,
			"byteOffset":328896,
			"target":34962
		},
		{
			"buffer":0,
			"byteLength":153600,
			"byteOffset":438528,
			"target":34963
		},
		{
			"buffer":0,
			"byteLength":217320,
			"byteOffset":592128,
			"target":34962
		},
		{
			"buffer":0,
			"byteLength":217320,
			"byteOffset":809448,
			"target":34962
		},
		{
			"buffer":0,
			"byteLength":144880,
			"byteOffset":1026768,
			"target":34962
		},
		{
			"buffer":0,
			"byteLength":64992,
			"byteOffset":1171648,
			"target":34963
		}
	],
	"samplers":[
		{
			"magFilter":9729,
			"minFilter":9987
		}
	],
	"buffers":[
		{
			"byteLength":1236640,
			"uri":"Scene.bin"
		}
	]
}
